<svg height="512pt" viewBox="0 0 512.00065 512" width="512pt" xmlns="http://www.w3.org/2000/svg" xmlns:xlink="http://www.w3.org/1999/xlink"><linearGradient id="a" gradientUnits="userSpaceOnUse" x1="-.000262" x2="511.9991699076" y1="255.9970409538" y2="255.9970409538"><stop offset="0" stop-color="#00f2fe"/><stop offset=".0208" stop-color="#03effe"/><stop offset=".2931" stop-color="#24d2fe"/><stop offset=".5538" stop-color="#3cbdfe"/><stop offset=".7956" stop-color="#4ab0fe"/><stop offset="1" stop-color="#4facfe"/></linearGradient><path d="m487.492188 447.472656c-10.816407 2.246094-17.765626 12.832032-15.519532 23.648438.113282.539062-.308594.859375-.324218.871094h-195.78125c.046874-.203126.109374-.398438.152343-.605469 9.601563-46.253907 50.808594-79.824219 97.976563-79.824219 21.128906 0 41.289062 6.460938 58.3125 18.679688 8.972656 6.441406 21.46875 4.390624 27.90625-4.585938 6.445312-8.972656 4.390625-21.46875-4.582032-27.910156-7.472656-5.363282-15.378906-9.9375-23.613281-13.6875 12.410157-13.816406 19.976563-32.070313 19.976563-52.0625 0-43.007813-34.988282-77.996094-78-77.996094-43.007813 0-77.996094 34.988281-77.996094 77.996094 0 20.039062 7.597656 38.328125 20.058594 52.15625-11.082032 5.042968-21.527344 11.53125-31.019532 19.359375-11.390624 9.398437-21.171874 20.515625-29.039062 32.832031-7.867188-12.316406-17.648438-23.433594-29.042969-32.832031-9.3125-7.683594-19.546875-14.078125-30.394531-19.074219 12.085938-13.742188 19.4375-31.742188 19.4375-51.441406 0-43.007813-34.992188-77.996094-78-77.996094s-78 34.988281-78 77.996094c0 19.699218 7.355469 37.699218 19.441406 51.441406-10.851562 5-21.085937 11.390625-30.398437 19.074219-24.613281 20.300781-41.722657 48.621093-48.183594 79.746093-.46875 2.253907-.742187 4.519532-.828125 6.773438-.375 9.777344 2.785156 19.375 9.070312 27.097656 7.6875 9.445313 19.074219 14.863282 31.246094 14.863282h431.300782c12.105468 0 23.460937-5.421876 31.15625-14.878907 7.808593-9.59375 10.84375-22.03125 8.335937-34.125-2.246094-10.8125-12.835937-17.757812-23.648437-15.515625zm-113.496094-173.476562c20.953125 0 38 17.046875 38 38s-17.046875 38-38 38-38-17.046875-38-38 17.046875-38 38-38zm-235.996094 1c20.953125 0 38 17.046875 38 38s-17.046875 38-38 38-38-17.046875-38-38 17.046875-38 38-38zm-97.761719 196.988281s-.308593-.148437-.214843-.597656c9.601562-46.253907 50.804687-79.824219 97.976562-79.824219s88.375 33.570312 97.976562 79.824219c.042969.207031.105469.402343.15625.605469h-195.785156c-.066406 0-.101562-.003907-.109375-.007813zm-7.921875-299.617187c20.289063 18.460937 47.167969 28.628906 75.683594 28.628906 12.6875 0 24.941406-1.957032 36.542969-5.824219l43.390625 19.125c2.59375 1.144531 5.339844 1.699219 8.0625 1.699219 5.097656 0 10.117187-1.945313 13.925781-5.640625 5.84375-5.664063 7.671875-14.308594 4.621094-21.855469l-14.371094-35.542969c10.273437-15.691406 15.828125-33.910156 15.828125-52.414062 0-55.4375-48.449219-100.542969-108-100.542969s-107.99609375 45.105469-107.99609375 100.542969v.246093c-.00390625 27.195313 11.47265575 52.613282 32.31249975 71.578126zm7.683594-71.824219c0-33.382813 30.503906-60.542969 68-60.542969s68 27.160156 68 60.542969c0 13.304687-4.773438 25.933593-13.800781 36.523437-4.832031 5.671875-6.113281 13.558594-3.320313 20.46875l.117188.296875-5.796875-2.558593c-5.0625-2.230469-10.824219-2.265626-15.914063-.09375-9.050781 3.863281-18.902344 5.820312-29.285156 5.820312-37.496094 0-68-27.011719-68-60.210938zm363.996094-100.542969c-59.550782 0-108 45.101562-108 100.539062 0 18.507813 5.554687 36.726563 15.828125 52.417969l-14.367188 35.542969c-3.050781 7.546875-1.226562 16.191406 4.621094 21.855469 3.808594 3.691406 8.828125 5.640625 13.921875 5.640625 2.722656 0 5.46875-.554688 8.0625-1.699219l43.390625-19.125c11.601563 3.867187 23.855469 5.824219 36.542969 5.824219 28.519531 0 55.394531-10.167969 75.6875-28.632813 20.835937-18.960937 32.3125-44.378906 32.3125-71.574219v-.25c0-55.4375-48.449219-100.539062-108-100.539062zm68 100.789062c0 33.199219-30.503906 60.210938-68 60.210938-10.382813 0-20.234375-1.960938-29.285156-5.820312-2.507813-1.070313-5.179688-1.601563-7.847657-1.601563-2.75 0-5.5.566406-8.066406 1.695313l-5.796875 2.558593.117188-.296875c2.792968-6.910156 1.515624-14.796875-3.320313-20.46875-9.027344-10.589844-13.800781-23.21875-13.800781-36.523437 0-33.382813 30.503906-60.542969 68-60.542969s68 27.160156 68 60.542969zm0 0" fill="url(#a)"/></svg>